# xmcd CD database file
#
# Track frame offsets:
#	182
#	17505
#	36645
#	52127
#	67642
#	86952
#	102540
#	129650
#	141940
#	154175
#	171155
#	189575
#
# Disc length: 2718 seconds
#
# Revision: 1
# Processed by: cddbd v1.5.2PL0 Copyright (c) Steve Scherf et al.
# Submitted via: CDex 1.51
#
DISCID=ad0a9c0c
DTITLE=CANZONI  ITALIANE - STORNELLI  Vol. 21
DYEAR=1900
DGENRE=Chanson
TTITLE0=Stornelli romani 1° parte - A. AMICI
TTITLE1=Stornelli romani 2° parte - A. AMICI
TTITLE2=Stornelli napoletani 1° parte - A. BERRI
TTITLE3=Stornelli napoletani 2° parte - A. BERRI
TTITLE4=Stornell'Arno - M. DE GREGORIO
TTITLE5=Le strofette di Rosetta - R. FUCCI
TTITLE6=Nuovi stornelli fiorentini - G. SACCO
TTITLE7=Stornelli romani ar peperoncino - A. AMICI
TTITLE8=Stornellata fiorentina - C. BUTI
TTITLE9=Stornelli a cacio e pepe - A. AMICI
TTITLE10=Stornelli d'esilio - MARGOT
TTITLE11=Stornello Trasteverino - C. VILLA
EXTD=
EXTT0=
EXTT1=
EXTT2=
EXTT3=
EXTT4=
EXTT5=
EXTT6=
EXTT7=
EXTT8=
EXTT9=
EXTT10=
EXTT11=
PLAYORDER=
